<svg xmlns="http://www.w3.org/2000/svg" width="41" height="41" viewBox="0 0 41 41">
  <g id="Trips_ICO" data-name="Trips ICO" transform="translate(0 -0.42)">
    <g id="pin" transform="translate(0 0.42)">
      <rect id="Rectangle_9" data-name="Rectangle 9" width="41" height="41" fill="#fff" opacity="0"/>
      <path id="Path_7" data-name="Path 7" d="M17.968,2A13.969,13.969,0,0,0,4,15.829C4,25.4,16.31,36.048,16.834,36.5a1.746,1.746,0,0,0,2.27,0c.611-.454,12.834-11.1,12.834-20.673A13.968,13.968,0,0,0,17.968,2Zm0,30.818C15.053,30.042,7.492,22.342,7.492,15.829a10.476,10.476,0,1,1,20.953,0C28.445,22.289,20.884,30.042,17.968,32.818Z" transform="translate(2.984 0.587)" fill="#fff"/>
      <path id="Path_8" data-name="Path 8" d="M14.611,6a6.111,6.111,0,1,0,6.111,6.111A6.111,6.111,0,0,0,14.611,6Zm0,8.73a2.619,2.619,0,1,1,2.619-2.619A2.619,2.619,0,0,1,14.611,14.73Z" transform="translate(6.341 3.571)" fill="#fff"/>
    </g>
  </g>
</svg>
